<?xml version="1.0" encoding="utf-8"?>
<!-- Generator: Adobe Illustrator 18.0.0, SVG Export Plug-In . SVG Version: 6.00 Build 0)  -->
<!DOCTYPE svg PUBLIC "-//W3C//DTD SVG 1.1//EN" "http://www.w3.org/Graphics/SVG/1.1/DTD/svg11.dtd">
<svg version="1.1" id="Layer_1" xmlns="http://www.w3.org/2000/svg" xmlns:xlink="http://www.w3.org/1999/xlink" x="0px" y="0px"
	 viewBox="0 0 326.2 114.7" enable-background="new 0 0 326.2 114.7" xml:space="preserve">
<g>
	<g>
		<path fill="#4D4D4F" d="M92.5,49.5v24h-7v-24h-7.6v-5.4h22.6l-0.7,5.4H92.5z"/>
		<path fill="#4D4D4F" d="M105.3,64.3c0.5,3.6,2.3,5.1,5,5.1c1.8,0,3.4-0.6,5.3-2l2.8,3.9c-2.2,1.7-5.1,3.1-8.7,3.1
			c-7.7,0-11.5-5-11.5-12c0-6.7,3.7-12.1,10.7-12.1c6.4,0,10.4,4.3,10.4,11.6c0,0.8,0,1.7-0.1,2.4H105.3z M105.2,60.2h7.5
			c0-3.2-0.9-5.4-3.6-5.4C106.9,54.8,105.5,56.4,105.2,60.2z"/>
		<path fill="#4D4D4F" d="M137.7,67.3l3.1,4.3c-2.2,1.7-4.6,2.7-7.5,2.7c-7.3,0-11.4-4.8-11.4-11.8c0-7,4.2-12.2,11.2-12.2
			c3.1,0,5.6,1,7.7,2.8l-2.9,4.1c-1.5-1.2-2.8-1.7-4.3-1.7c-2.9,0-4.5,1.9-4.5,7c0,5,1.8,6.5,4.5,6.5
			C134.9,68.9,136.1,68.5,137.7,67.3z"/>
		<path fill="#4D4D4F" d="M150.5,73.5h-6.8V42.1l6.8-0.7v11.9c1.9-2,4-3.1,6.6-3.1c4,0,6.1,2.5,6.1,6.7v16.5h-6.8V58.1
			c0-2.1-0.7-2.8-2.1-2.8c-1.4,0-2.6,1-3.8,2.7V73.5z"/>
	</g>
</g>
<g>
	<g>
		<path fill="#4D4D4F" d="M188,66.4l3.2,4.1c-2,2-5.3,3.8-9.6,3.8c-7.8,0-13.2-5.4-13.2-15.5c0-9.8,5.7-15.4,13.3-15.4
			c4,0,6.7,1.2,9.2,3.3l-3.5,4.1c-1.5-1.4-3.2-2.1-5.3-2.1c-3.7,0-6.4,3-6.4,10.2c0,7,2.5,10.1,6.2,10.1
			C184.6,68.8,186.4,67.7,188,66.4z"/>
		<path fill="#4D4D4F" d="M203.8,50.2c6.9,0,11.1,4.8,11.1,12c0,7.6-4.2,12.1-11.1,12.1c-7,0-11.1-4.4-11.1-12
			C192.7,55.1,196.9,50.2,203.8,50.2z M203.8,55.3c-2.7,0-4.1,2.1-4.1,7c0,5,1.3,7,4.1,7c2.7,0,4-2.1,4-7.1
			C207.8,57.4,206.5,55.3,203.8,55.3z"/>
		<path fill="#4D4D4F" d="M225.6,73.5h-6.8V51h5.9l0.5,2.6c2-2.2,4.3-3.4,7-3.4c4,0,6.1,2.5,6.1,6.7v16.5h-6.8V58.1
			c0-2.1-0.7-2.8-2.1-2.8c-1.4,0-2.6,1-3.8,2.7V73.5z"/>
		<path fill="#4D4D4F" d="M250.1,73.5h-6.8V51h5.9l0.5,2.6c2-2.2,4.3-3.4,7-3.4c4,0,6.1,2.5,6.1,6.7v16.5H256V58.1
			c0-2.1-0.7-2.8-2.1-2.8c-1.4,0-2.6,1-3.8,2.7V73.5z"/>
		<path fill="#4D4D4F" d="M273.5,64.3c0.5,3.6,2.3,5.1,5,5.1c1.8,0,3.4-0.6,5.3-2l2.8,3.9c-2.2,1.7-5.1,3.1-8.7,3.1
			c-7.7,0-11.5-5-11.5-12c0-6.7,3.7-12.1,10.7-12.1c6.4,0,10.4,4.3,10.4,11.6c0,0.8,0,1.7-0.1,2.4H273.5z M273.4,60.2h7.5
			c0-3.2-0.9-5.4-3.6-5.4C275.1,54.8,273.7,56.4,273.4,60.2z"/>
		<path fill="#4D4D4F" d="M305.9,67.3l3.1,4.3c-2.2,1.7-4.6,2.7-7.5,2.7c-7.3,0-11.4-4.8-11.4-11.8s4.2-12.2,11.2-12.2
			c3.1,0,5.6,1,7.7,2.8l-2.9,4.1c-1.5-1.2-2.8-1.7-4.3-1.7c-2.9,0-4.5,1.9-4.5,7c0,5,1.8,6.5,4.5,6.5
			C303.1,68.9,304.3,68.5,305.9,67.3z"/>
		<path fill="#4D4D4F" d="M326.2,72.5c-1.7,1.2-4.2,1.8-6.2,1.8c-5.8,0-7.5-3.1-7.5-8.3V55.7h-3.4V51h3.4v-4.9l6.8-0.8V51h5.3
			l-0.7,4.7h-4.6V66c0,2.2,0.7,2.9,2.1,2.9c0.8,0,1.5-0.3,2.4-0.8L326.2,72.5z"/>
	</g>
</g>
<linearGradient id="SVGID_1_" gradientUnits="userSpaceOnUse" x1="8.312178e-03" y1="28.8129" x2="36.8923" y2="28.8129">
	<stop  offset="0" style="stop-color:#3A7FB9"/>
	<stop  offset="1" style="stop-color:#3E8BCA"/>
</linearGradient>
<polygon fill="url(#SVGID_1_)" points="36.9,20.8 0,57.6 0.1,36.8 36.9,0 "/>
<linearGradient id="SVGID_2_" gradientUnits="userSpaceOnUse" x1="36.4337" y1="85.844" x2="73.3178" y2="85.844">
	<stop  offset="0" style="stop-color:#3A7FB9"/>
	<stop  offset="1" style="stop-color:#3E8BCA"/>
</linearGradient>
<polygon fill="url(#SVGID_2_)" points="73.3,77.8 36.4,114.7 36.5,93.9 73.3,57 "/>
<linearGradient id="SVGID_3_" gradientUnits="userSpaceOnUse" x1="14.3854" y1="31.7838" x2="16.3854" y2="31.7838">
	<stop  offset="0" style="stop-color:#063252"/>
	<stop  offset="0.5114" style="stop-color:#29608D"/>
	<stop  offset="1" style="stop-color:#3C84C0"/>
</linearGradient>
<polygon fill="url(#SVGID_3_)" points="16.4,41.1 14.4,43.1 14.4,22.6 16.4,20.4 "/>
<linearGradient id="SVGID_4_" gradientUnits="userSpaceOnUse" x1="-409.0634" y1="993.3732" x2="-359.521" y2="993.3732" gradientTransform="matrix(-0.7071 0.7071 -0.7071 -0.7071 489.4771 1031.4171)">
	<stop  offset="0" style="stop-color:#2E6A9A"/>
	<stop  offset="1" style="stop-color:#20527A"/>
</linearGradient>
<polygon fill="url(#SVGID_4_)" points="58.8,92.3 58.8,22.2 73.5,37 73.5,77.5 "/>
<linearGradient id="SVGID_5_" gradientUnits="userSpaceOnUse" x1="-384.9168" y1="215.0896" x2="-382.6326" y2="215.0896" gradientTransform="matrix(-0.7071 0.7071 0.7071 0.7071 -357.3003 170.6078)">
	<stop  offset="0" style="stop-color:#063252"/>
	<stop  offset="0.5114" style="stop-color:#245882"/>
	<stop  offset="1" style="stop-color:#2B6492"/>
</linearGradient>
<polygon fill="url(#SVGID_5_)" points="73.5,60.2 73.5,57.4 58.9,42.4 58.8,45 "/>
<linearGradient id="SVGID_6_" gradientUnits="userSpaceOnUse" x1="36.8923" y1="28.7023" x2="73.4584" y2="28.7023">
	<stop  offset="0" style="stop-color:#3475AA"/>
	<stop  offset="1" style="stop-color:#3E8BCA"/>
</linearGradient>
<polygon fill="url(#SVGID_6_)" points="36.9,20.8 73.5,57.4 73.4,36.6 36.9,0 "/>
<linearGradient id="SVGID_7_" gradientUnits="userSpaceOnUse" x1="-401.1379" y1="1001.1889" x2="-366.0524" y2="1001.1889" gradientTransform="matrix(0.7071 0.7071 0.7071 -0.7071 -427.227 1031.4171)">
	<stop  offset="0" style="stop-color:#2E6A9A"/>
	<stop  offset="1" style="stop-color:#20527A"/>
</linearGradient>
<polygon fill="url(#SVGID_7_)" points="14.7,71.8 14.7,22.2 0,37 0,77.9 "/>
<linearGradient id="SVGID_8_" gradientUnits="userSpaceOnUse" x1="-35.2327" y1="1120.7983" x2="1.3333" y2="1120.7983" gradientTransform="matrix(-1 0 0 -1 1.3333 1206.6423)">
	<stop  offset="0" style="stop-color:#3475AA"/>
	<stop  offset="1" style="stop-color:#3E8BCA"/>
</linearGradient>
<polygon fill="url(#SVGID_8_)" points="36.5,93.8 0,57.1 0.1,77.9 36.6,114.5 "/>
</svg>
