<?xml version="1.0" encoding="utf-8"?>
<!-- Generator: Adobe Illustrator 18.0.0, SVG Export Plug-In . SVG Version: 6.00 Build 0)  -->
<!DOCTYPE svg PUBLIC "-//W3C//DTD SVG 1.1//EN" "http://www.w3.org/Graphics/SVG/1.1/DTD/svg11.dtd">
<svg version="1.1" id="Layer_1" xmlns="http://www.w3.org/2000/svg" xmlns:xlink="http://www.w3.org/1999/xlink" x="0px" y="0px"
	 viewBox="0 0 301.7 98.7" enable-background="new 0 0 301.7 98.7" xml:space="preserve">
<linearGradient id="SVGID_1_" gradientUnits="userSpaceOnUse" x1="149.7429" y1="44.349" x2="149.7429" y2="25.4386">
	<stop  offset="0" style="stop-color:#3F8BCA"/>
	<stop  offset="1" style="stop-color:#377AB2"/>
</linearGradient>
<path fill="url(#SVGID_1_)" d="M152.6,44.3h2c5,0,9-4.1,9-9v-9.8h-7.5v0h-2.7v0h-8.2v0h-2.7v0h-6.9v9.8c0,5,4.1,9,9,9h2v0
	L152.6,44.3L152.6,44.3z"/>
<linearGradient id="SVGID_2_" gradientUnits="userSpaceOnUse" x1="149.7432" y1="62.5062" x2="149.7432" y2="0">
	<stop  offset="0" style="stop-color:#3F8BCA"/>
	<stop  offset="1" style="stop-color:#377AB2"/>
</linearGradient>
<path fill="url(#SVGID_2_)" d="M147.4,0.1C131.1,1.2,118,14.5,117,30.8c-0.3,5.5,0.7,10.7,2.8,15.3c2.4,0,4.3,0,6.5,0
	c-2.6-4.5-3.9-9.8-3.5-15.5c1-13.2,11.7-23.9,25-24.8c15.7-1.1,28.9,11.4,28.9,26.9c0,9-4.4,16.9-11.1,21.8c-1.5,1-3.8,1.9-6.2,2.1
	c-2.6,0.2-4.6-0.5-5.3-1.2c-1.6-1.5-1.5-6.7-1.4-8.9c0-0.2,0-0.4,0-0.6h-5.8c0,0.2,0,0.3,0,0.5c-0.1,3.7-0.3,9.9,3.2,13.2
	c1.9,1.8,4.9,2.8,8.4,2.8c0.4,0,0.8,0,1.3,0c4-0.3,7.6-1.6,10-3.8l0,0c7.8-6,12.8-15.4,12.8-26C182.5,13.9,166.5-1.3,147.4,0.1z"/>
<linearGradient id="SVGID_3_" gradientUnits="userSpaceOnUse" x1="144.0045" y1="23.7645" x2="144.0045" y2="12.195">
	<stop  offset="0" style="stop-color:#285F8C"/>
	<stop  offset="1" style="stop-color:#3F8BCA"/>
</linearGradient>
<rect x="142.7" y="12.2" fill="url(#SVGID_3_)" width="2.7" height="11.6"/>
<linearGradient id="SVGID_4_" gradientUnits="userSpaceOnUse" x1="154.9074" y1="23.7645" x2="154.9074" y2="12.195">
	<stop  offset="0" style="stop-color:#285F8C"/>
	<stop  offset="1" style="stop-color:#3F8BCA"/>
</linearGradient>
<rect x="153.6" y="12.2" fill="url(#SVGID_4_)" width="2.7" height="11.6"/>
<g>
	<g>
		<path fill="#4D4D4F" d="M17.8,68.6v29.2H9.2V68.6H0v-6.6h27.5l-0.9,6.6H17.8z"/>
		<path fill="#4D4D4F" d="M33.4,86.5c0.6,4.4,2.8,6.2,6.1,6.2c2.2,0,4.1-0.7,6.5-2.5l3.5,4.7c-2.7,2.1-6.3,3.8-10.6,3.8
			c-9.4,0-14-6-14-14.6c0-8.1,4.5-14.7,13-14.7c7.8,0,12.6,5.2,12.6,14.1c0,0.9-0.1,2.1-0.2,2.9H33.4z M33.3,81.6h9.1
			C42.4,77.7,41.3,75,38,75C35.3,75,33.7,77,33.3,81.6z"/>
		<path fill="#4D4D4F" d="M72.9,90.2l3.7,5.3c-2.6,2.1-5.6,3.3-9.1,3.3c-8.8,0-13.8-5.8-13.8-14.4c0-8.6,5.1-14.8,13.6-14.8
			c3.8,0,6.8,1.2,9.4,3.4l-3.6,5c-1.9-1.5-3.5-2-5.2-2c-3.5,0-5.5,2.3-5.5,8.5c0,6.1,2.2,7.9,5.5,7.9C69.5,92.2,70.9,91.7,72.9,90.2
			z"/>
		<path fill="#4D4D4F" d="M88.5,97.9h-8.3V59.5l8.3-0.8v14.5c2.3-2.4,4.9-3.7,8-3.7c4.9,0,7.4,3,7.4,8.2v20.1h-8.3V79
			c0-2.5-0.8-3.4-2.5-3.4c-1.7,0-3.2,1.2-4.7,3.3V97.9z"/>
	</g>
</g>
<g>
	<g>
		<path fill="#4D4D4F" d="M133.5,88.3l3.9,5c-2.5,2.5-6.4,4.7-11.7,4.7c-9.5,0-16-6.6-16-18.9c0-12,7-18.8,16.2-18.8
			c4.9,0,8.2,1.5,11.2,4l-4.2,5c-1.9-1.7-3.9-2.6-6.4-2.6c-4.5,0-7.8,3.7-7.8,12.4c0,8.6,3.1,12.2,7.5,12.2
			C129.3,91.3,131.5,89.9,133.5,88.3z"/>
		<path fill="#4D4D4F" d="M152.7,68.7c8.4,0,13.5,5.8,13.5,14.6c0,9.2-5.1,14.7-13.5,14.7c-8.5,0-13.5-5.4-13.5-14.6
			C139.1,74.6,144.3,68.7,152.7,68.7z M152.7,74.8c-3.3,0-5,2.6-5,8.5c0,6,1.6,8.6,5,8.6c3.3,0,4.9-2.5,4.9-8.6
			C157.6,77.4,156,74.8,152.7,74.8z"/>
		<path fill="#4D4D4F" d="M179.2,97.1H171V69.6h7.2l0.6,3.2c2.4-2.7,5.2-4.1,8.5-4.1c4.9,0,7.4,3,7.4,8.2v20.1h-8.3V78.2
			c0-2.5-0.8-3.4-2.5-3.4c-1.7,0-3.2,1.2-4.6,3.3V97.1z"/>
		<path fill="#4D4D4F" d="M209.1,97.1h-8.3V69.6h7.2l0.6,3.2c2.4-2.7,5.2-4.1,8.5-4.1c4.9,0,7.4,3,7.4,8.2v20.1h-8.3V78.2
			c0-2.5-0.8-3.4-2.5-3.4c-1.7,0-3.2,1.2-4.6,3.3V97.1z"/>
		<path fill="#4D4D4F" d="M237.6,85.7c0.6,4.4,2.8,6.2,6.1,6.2c2.2,0,4.1-0.7,6.5-2.5l3.5,4.7c-2.7,2.1-6.3,3.8-10.6,3.8
			c-9.4,0-13.9-6-13.9-14.6c0-8.1,4.5-14.7,13-14.7c7.8,0,12.6,5.2,12.6,14.1c0,0.9-0.1,2.1-0.2,2.9H237.6z M237.5,80.8h9.1
			c-0.1-3.9-1.1-6.6-4.4-6.6C239.5,74.2,237.8,76.2,237.5,80.8z"/>
		<path fill="#4D4D4F" d="M277,89.4l3.7,5.3c-2.6,2.1-5.6,3.3-9.1,3.3c-8.8,0-13.8-5.8-13.8-14.4c0-8.6,5.1-14.8,13.6-14.8
			c3.8,0,6.8,1.2,9.4,3.4l-3.6,5c-1.9-1.5-3.5-2-5.2-2c-3.5,0-5.5,2.3-5.5,8.5c0,6.1,2.2,7.9,5.5,7.9C273.6,91.4,275,90.9,277,89.4z
			"/>
		<path fill="#4D4D4F" d="M301.7,95.8c-2.1,1.4-5.1,2.2-7.5,2.2c-7.1-0.1-9.1-3.8-9.1-10.1V75.3H281v-5.7h4.1v-5.9l8.3-1v6.9h6.5
			l-0.9,5.7h-5.6v12.6c0,2.6,0.9,3.6,2.6,3.6c0.9,0,1.9-0.3,2.9-0.9L301.7,95.8z"/>
	</g>
</g>
</svg>
